<svg width="214" height="22" viewBox="0 0 214 22" fill="none" xmlns="http://www.w3.org/2000/svg">
<path d="M81.1815 4.34347C82.1387 4.02702 82.3961 3.34621 83.8392 3.58488C88.2773 2.42811 93.5016 2.84482 98.2588 2.30561C98.9793 2.22907 99.8316 2.39975 100.627 2.46735C100.995 2.49469 101.624 2.61471 101.709 2.54842C103.13 1.51069 105.551 2.31756 107.37 1.96137C109.065 1.63948 110.995 1.52955 112.826 1.3647C114.657 1.19985 116.527 1.077 118.377 0.943176C118.911 0.908078 119.47 0.773736 119.959 0.836914C123.726 1.32558 127.142 0.542493 130.769 0.522456C134.273 0.506665 137.75 0.1683 141.313 0.637324C141.822 0.701464 142.495 0.773312 142.909 0.672319C145.438 0.0482453 148.243 0.511724 150.889 0.425452C151.833 0.399581 152.991 0.584689 153.676 0.396007C155.69 -0.171967 157.832 0.0192565 160 0.0811906C162.026 0.136388 164.076 0.0823269 166.098 0.217685C168.753 0.392897 171.498 0.381577 173.841 1.0844C175.158 0.955612 175.382 0.112576 177.01 0.339868C178.027 0.488189 179.16 0.360755 181.209 0.356794C179.762 0.620089 179.101 0.749623 177.903 0.964347C179.965 1.54348 181.654 1.77366 182.985 1.35429C184.295 0.933953 185.5 1.0208 186.802 1.21265C187.859 1.37292 188.872 1.61142 189.886 1.82988C190.779 2.01251 191.65 2.2142 192.624 2.42071C193.331 2.19291 194.076 2.03719 194.6 1.77066C195.839 1.12604 197.185 1.2597 198.578 1.68683C198.645 2.0013 198.527 2.34718 198.822 2.59208C199.019 2.76203 199.811 2.9198 200.243 2.87989C203.164 2.61574 205.888 3.05533 208.605 3.65524C209.578 3.87178 210.607 4.20142 211.975 3.86414C210.762 3.07396 208.359 3.22189 207.193 2.3134C209.184 2.21637 210.599 2.63445 211.991 3.07159C212.981 3.37927 213.658 3.79276 213.897 4.3664C211.017 4.62244 208.949 4.61542 206.475 4.06715C204.61 3.64794 202.855 3.51508 200.923 3.65507C200.039 3.71389 198.915 3.66094 198.127 3.43303C195.802 2.78127 193.622 2.96985 191.312 3.30295C191.325 3.46423 191.357 3.64652 191.404 3.96003C189.782 4.0343 188.257 4.23362 186.481 3.67799C185.088 3.24084 183.355 3.05883 181.817 3.5287C180.903 3.80699 179.993 3.55327 179.075 3.4799C177.238 3.34318 175.39 2.99508 173.698 3.69869C173.008 3.98757 171.638 3.94313 170.572 3.95321C166.249 3.98061 161.906 3.97697 157.584 3.98433C154.613 3.99508 151.643 3.98581 148.691 4.03761C145.862 4.08516 143.051 4.19378 140.22 4.28141C139.133 4.31057 138.065 4.36072 136.978 4.37986C133.474 4.42571 129.988 4.50259 126.534 4.77177C123.635 4.99679 120.603 4.99464 117.617 4.90423C113.608 4.77572 109.878 5.25282 106.037 5.47365C104.168 5.58648 102.317 5.74034 100.467 5.86415C99.666 5.91679 98.828 5.87734 98.0652 5.98201C94.0675 6.48669 89.9418 6.664 85.8514 6.96346C80.6721 7.33216 75.605 7.92708 70.4813 8.41891C65.3571 8.92076 60.2534 9.42357 55.1492 9.9364C53.7085 10.0795 52.306 10.2846 50.9238 10.4906C46.3449 11.1587 41.823 11.9199 37.1866 12.505C33.024 13.032 29.0368 13.7481 25.1871 14.5911C20.1163 15.6981 15.1626 16.931 10.2687 18.1968C7.573 18.8934 5.31372 19.8916 3.43475 21.0785C2.97047 21.368 2.42536 21.6335 1.89977 21.9201C-0.0926816 20.7317 -0.476116 19.7395 0.553543 18.7537C0.982135 18.3521 1.49154 17.9743 1.83838 17.5689C2.31587 16.9989 3.03296 16.5607 4.25064 16.367C5.55103 16.157 6.57093 15.8134 7.25517 15.2029C7.61867 14.8786 8.34627 14.6518 9.01164 14.4421C12.7748 13.2635 16.6154 12.1791 21.048 11.5744C24.491 11.1038 27.7428 10.3431 31.1101 9.73842C33.8578 9.24517 36.6234 8.803 39.3906 8.33076C41.7651 7.93041 44.102 7.45798 46.535 7.12064C50.3901 6.5992 54.2823 6.15986 58.1754 5.70047C58.9378 5.60582 59.7582 5.58419 60.54 5.51054C61.9602 5.36653 63.5587 5.35141 64.7825 5.02743C67.3542 4.35518 70.1813 4.34771 72.9904 4.28918C73.7904 4.26659 74.7254 4.42106 75.4079 4.28248C77.3128 3.84998 79.2934 3.98342 81.1815 4.34347ZM167.292 0.956799C166.914 1.16994 166.577 1.36498 166.24 1.54998C166.442 1.61972 166.742 1.76441 166.825 1.7382C167.22 1.62622 167.554 1.48131 167.889 1.32637C167.869 1.31539 167.61 1.16258 167.292 0.956799ZM169.002 2.9353C168.921 2.90139 168.841 2.85746 168.782 2.82451C168.696 2.90083 168.631 2.96806 168.546 3.04437C168.648 3.0592 168.769 3.08503 168.852 3.06884C168.935 3.05265 168.958 2.98348 169.002 2.9353ZM139.33 0.995837C139.27 0.95287 139.233 0.880799 139.152 0.85691C139.051 0.832057 138.907 0.84536 138.784 0.839586C138.862 0.913576 138.94 0.997605 138.998 1.07063C139.143 1.04731 139.226 1.02109 139.33 0.995837ZM44.776 8.80527L44.9339 8.9332L45.0831 8.80967L44.776 8.80527ZM157.62 1.04365L157.358 0.95097L157.311 1.07931L157.62 1.04365Z" fill="#59B1C2"/>
<path d="M198.693 16.6452C196.037 16.9319 196.037 16.9319 194.921 18.0041C191.951 18.0149 188.991 18.227 186.076 17.4972C185.732 17.4107 185.119 17.3618 184.931 17.4533C183.508 18.0793 181.849 17.6396 180.274 17.5956C177.165 17.4994 174.035 17.4123 170.926 17.3161C169.024 17.2566 167.121 17.2072 165.218 17.1578C163.888 17.1253 162.53 16.8203 161.242 17.2116C160.868 17.3245 160.174 17.2617 159.645 17.1966C156.631 16.8237 153.697 16.9266 150.722 17.0275C148.444 17.1111 146.146 17.1837 143.825 16.8836C143.174 16.8027 142.477 16.81 141.8 16.8384C137.223 17.0146 132.652 17.0905 128.013 16.852C127.339 16.8202 126.643 16.7976 125.986 16.8469C118.6 17.5135 110.998 17.5772 103.522 17.9985C95.1212 18.4766 86.5913 18.6574 78.3554 19.555C76.9143 19.7081 75.5122 19.9032 74.0711 20.0563C73.4532 20.1276 72.7963 20.1569 72.0154 20.2105C70.8976 19.1537 70.517 18.1014 70.0536 17.0653C69.7758 16.4396 70.5538 16.0143 71.5462 15.82C73.2819 15.5001 75.0766 15.2331 76.9074 15.0682C85.9808 14.2201 95.1998 13.7604 104.44 13.2817C106.042 13.1964 107.679 13.2233 109.281 13.1481C111.806 13.026 114.334 12.8437 116.859 12.7216C118.071 12.6682 119.301 12.6358 120.507 12.6825C123.35 12.7862 126.169 12.9591 129.009 12.6711C130.655 12.5076 132.528 12.7565 134.29 12.7591C138.221 12.7835 142.156 12.7579 146.087 12.7823C148.647 12.8024 151.227 12.8235 153.801 12.9648C155.824 13.0801 157.816 13.4149 159.835 13.6004C161.018 13.7063 162.442 13.9039 163.394 13.7077C166.312 13.0819 169.257 13.6022 172.201 13.7207C173.673 13.78 175.138 14.0096 176.605 14.1691C178.073 14.3186 179.566 14.3688 180.938 14.805C181.584 15.0061 182.507 14.9793 183.282 15.0559C183.256 15.1752 183.23 15.2945 183.204 15.4037C183.23 15.2945 183.255 15.1852 183.281 15.076C183.277 14.7343 183.672 14.6023 184.304 14.6622C185.69 14.8078 187.003 14.7792 188.244 14.5263L188.183 14.5134C188.489 14.9597 188.734 15.4131 189.144 15.8441C189.475 16.2112 189.992 16.5368 190.526 16.9536C192.395 16.8508 194.088 16.559 195.801 16.2981C197.39 16.0516 199.018 15.827 201.219 16.5031C200.007 16.5766 199.288 16.623 198.589 16.6705C198.629 16.6924 198.693 16.6452 198.693 16.6452ZM143.107 14.299C143.37 14.3816 143.489 14.4476 143.572 14.4414C143.84 14.4038 144.089 14.3352 144.358 14.2776C143.988 14.2903 143.62 14.293 143.107 14.299ZM177.513 15.3366C177.454 15.2836 177.416 15.2115 177.335 15.1876C177.255 15.1638 177.11 15.1971 177.007 15.2023C177.106 15.2773 177.204 15.3622 177.283 15.4362C177.366 15.41 177.429 15.3728 177.513 15.3366ZM168.121 14.6835L168.093 14.8328L168.444 14.789L168.121 14.6835Z" fill="#59B1C2"/>
</svg>
